<svg height="100%" stroke-miterlimit="10" style="fill-rule:nonzero;clip-rule:evenodd;stroke-linecap:round;stroke-linejoin:round;" version="1.1" viewBox="0 0 100 100" width="100%" xml:space="preserve" xmlns="http://www.w3.org/2000/svg">
    <style>
        path {
            fill: #000000;
        }
        @media(prefers-color-scheme: dark) {
            path {
                fill: #ffffff;
            }
        }
    </style>
<defs/>
<clipPath id="ArtboardFrame">
<rect height="100" width="100" x="0" y="0"/>
</clipPath>
<g clip-path="url(#ArtboardFrame)" id="Layer-1">
<path d="M50 0C22.3858 0 0 22.3858 0 50C0 77.6142 22.3858 100 50 100C77.6142 100 100 77.6142 100 50C100 22.3858 77.6142 0 50 0ZM50 2.875C76.0307 2.875 97.125 23.9693 97.125 50C97.125 76.0307 76.0308 97.125 50 97.125C23.9693 97.125 2.875 76.0308 2.875 50C2.875 23.9693 23.9693 2.875 50 2.875Z" fill-rule="nonzero" opacity="1" stroke="none"/>
<g opacity="1">
<path d="M65.1209 23.9057C64.4056 23.8918 63.5967 24.0825 62.7394 24.3882C61.7952 24.5676 60.8718 24.8113 59.7111 24.9425C58.1787 25.1157 56.6187 25.4074 55.1635 25.9177C56.8637 26.3711 58.3889 27.025 59.9061 27.8476C63.0851 28.9353 65.4771 30.3287 67.6565 32.5081C68.1181 32.9697 68.4232 33.4245 68.9294 34.284C68.9767 34.3644 68.9755 34.3593 69.0218 34.438C69.2224 34.7788 69.3093 34.8315 69.4427 35.0231C69.6347 35.1484 69.8873 35.317 69.9251 35.3414C70.2648 35.5602 70.4467 35.7309 70.7258 35.9265C70.6644 35.3618 70.6211 34.7889 70.5719 34.3456C70.4922 33.6283 70.5489 32.7215 70.2639 32.0564C69.9267 31.2698 69.2406 30.6734 69.032 29.8391C68.971 29.5948 68.9333 29.3049 68.8883 29.0384C68.8073 26.9937 68.2903 25.418 67.2048 24.5935C66.9363 24.3896 66.6385 24.2225 66.322 24.111C65.9536 23.9813 65.5485 23.914 65.1209 23.9057Z" fill-rule="nonzero" opacity="1" stroke="none"/>
<path d="M31.2554 67.1025C31.1867 69.2383 31.6339 70.9716 32.7233 72.0915C33.07 73.0496 33.5985 73.8577 34.4171 74.4012C36.2277 75.6034 38.9681 75.5264 42.1983 74.4115C37.7168 72.4493 35.2926 71.0822 32.8773 68.8682C32.5205 68.5411 31.8025 67.7621 31.2554 67.1025Z" fill-rule="nonzero" opacity="1" stroke="none"/>
<path d="M50.1437 25.0452C46.2675 25.0452 42.8101 25.6467 39.7551 26.8621C36.7001 28.0776 34.0804 29.8022 31.9124 32.0359C29.7443 34.2697 28.0936 36.9715 26.9439 40.125C25.7942 43.2786 25.2193 46.7544 25.2193 50.565C25.2193 54.3098 25.7757 57.7589 26.8926 60.9125C28.0095 64.066 29.6334 66.7576 31.7687 68.9913C33.9039 71.2251 36.5133 72.9682 39.6012 74.2164C42.689 75.4647 46.2018 76.095 50.1437 76.095C53.8885 76.095 57.2925 75.4832 60.3475 74.2678C63.4025 73.0523 65.9935 71.3277 68.1287 69.094C70.2639 66.8602 71.9064 64.1871 73.0561 61.0665C74.2058 57.9458 74.7807 54.4412 74.7807 50.565C74.7807 46.6887 74.2058 43.1759 73.0561 40.0224C71.9064 36.8689 70.2639 34.1957 68.1287 31.9948C65.9935 29.7939 63.421 28.0776 60.3988 26.8621C57.3767 25.6467 53.9542 25.0452 50.1437 25.0452Z" fill-rule="nonzero" opacity="1" stroke="none"/>
</g>
</g>
</svg>
